<?xml version="1.0" standalone="no"?>
<!DOCTYPE svg PUBLIC "-//W3C//DTD SVG 20010904//EN"
 "http://www.w3.org/TR/2001/REC-SVG-20010904/DTD/svg10.dtd">
<svg version="1.0" xmlns="http://www.w3.org/2000/svg"
 width="54.000000pt" height="54.000000pt" viewBox="0 0 54.000000 54.000000"
 preserveAspectRatio="xMidYMid meet">

<g transform="translate(0.000000,54.000000) scale(0.100000,-0.100000)"
fill="#000000" stroke="none">
<path d="M139 469 c-18 -18 -21 -30 -17 -71 5 -46 3 -50 -21 -59 -83 -32 -82
-106 1 -138 24 -9 26 -14 21 -45 -8 -49 4 -85 32 -98 20 -9 31 -6 69 16 l46
27 46 -27 c38 -22 49 -25 69 -16 28 13 40 49 32 98 -5 31 -3 36 21 45 84 32
84 106 0 138 -24 9 -26 14 -21 45 8 49 -4 85 -32 98 -20 9 -31 6 -69 -16 l-46
-27 -43 26 c-53 30 -61 31 -88 4z m89 -19 c32 -20 32 -20 16 -45 -20 -31 -44
-45 -78 -45 -21 0 -26 6 -31 34 -14 70 29 95 93 56z m173 -1 c6 -12 8 -36 4
-55 -5 -28 -10 -34 -31 -34 -34 0 -58 14 -78 45 -16 25 -16 25 16 45 43 26 74
25 89 -1z m-113 -51 c19 -19 14 -28 -18 -28 -16 0 -30 4 -30 8 0 9 21 32 30
32 3 0 11 -5 18 -12z m49 -77 c29 -43 29 -59 0 -102 -18 -27 -30 -35 -61 -37
-42 -4 -60 8 -82 51 -18 34 -13 63 17 101 18 23 28 27 62 24 34 -2 45 -9 64
-37z m-153 -3 c-14 -28 -17 -29 -26 -14 -13 24 -3 46 22 46 20 0 20 -1 4 -32z
m202 18 c3 -8 1 -23 -4 -32 -9 -15 -12 -14 -26 14 -16 31 -16 32 4 32 11 0 23
-6 26 -14z m-239 -36 c14 -37 -3 -90 -28 -90 -24 0 -69 39 -69 60 0 21 45 60
69 60 9 0 22 -13 28 -30z m317 9 c14 -11 26 -29 26 -39 0 -21 -45 -60 -69 -60
-25 0 -42 53 -28 90 13 35 34 38 71 9z m-279 -89 c15 -28 14 -30 -4 -30 -25 0
-34 14 -26 40 8 26 12 25 30 -10z m201 -16 c-3 -8 -15 -14 -26 -14 -20 0 -20
1 -4 32 14 28 17 29 26 14 5 -9 7 -24 4 -32z m-177 -34 c10 -5 26 -21 35 -35
16 -25 16 -25 -16 -45 -64 -39 -107 -14 -93 56 5 28 10 34 31 34 14 0 33 -4
43 -10z m196 -24 c14 -70 -29 -95 -93 -56 -32 20 -32 21 -16 45 21 32 42 44
76 45 23 0 28 -5 33 -34z m-105 15 c0 -5 -7 -14 -15 -21 -12 -10 -18 -10 -30
0 -23 19 -18 30 15 30 17 0 30 -4 30 -9z"/>
<path d="M237 302 c-22 -24 -21 -45 1 -65 24 -22 45 -21 65 1 22 24 21 45 -1
65 -24 22 -45 21 -65 -1z"/>
</g>
</svg>
